HIERARCHY
ROOT Hips
{
	OFFSET 0.000000 0.000000 0.000000 
	CHANNELS 6 Xposition Yposition Zposition Yrotation Zrotation Xrotation 
	JOINT Lumbar
	{
		OFFSET 0.000000 0.000000 0.000000 
		CHANNELS 3 Zrotation Xrotation Yrotation
		JOINT Neck
		{
			OFFSET 0.000000 0.445665 0.000000 
			CHANNELS 3 Zrotation Xrotation Yrotation
			End Site
			{
				OFFSET 0.000000 0.227535 0.000000 
			}
		}
		JOINT RightShoulder
		{
			OFFSET 0.019635 0.377685 0.194865 
			CHANNELS 3 Zrotation Xrotation Yrotation
			JOINT RightElbow
			{
				OFFSET 0.000000 -0.243375 0.000000 
				CHANNELS 2 Zrotation Yrotation
				JOINT RightWrist
				{
					OFFSET 0.000000 -0.264825 0.000000 
					CHANNELS 2 Zrotation Xrotation
					End Site
					{
						OFFSET 0.006600 -0.176220 0.000990 
					}
				}
			}
		}
		JOINT LeftShoulder
		{
			OFFSET 0.019635 0.377685 -0.194865 
			CHANNELS 3 Zrotation Xrotation Yrotation
			JOINT LeftElbow
			{
				OFFSET 0.000000 -0.243375 0.000000 
				CHANNELS 2 Zrotation Yrotation
				JOINT LeftWrist
				{
					OFFSET 0.000000 -0.264825 0.000000 
					CHANNELS 2 Zrotation Xrotation
					End Site
					{
						OFFSET 0.006600 -0.176220 -0.000990 
					}
				}
			}
		}
	}
	JOINT RightHip
	{
		OFFSET 0.052140 -0.069960 0.075570 
		CHANNELS 3 Zrotation Xrotation Yrotation
		JOINT RightKnee
		{
			OFFSET 0.000000 -0.402270 0.000000 
			CHANNELS 1 Zrotation
			JOINT RightAnkle
			{
				OFFSET 0.000000 -0.404085 0.000000 
				CHANNELS 3 Zrotation Xrotation Yrotation
				End Site
				{
					OFFSET 0.204105 -0.089430 0.008415 
				}
			}
		}
	}
	JOINT LeftHip
	{
		OFFSET 0.052140 -0.069960 -0.075570 
		CHANNELS 3 Zrotation Xrotation Yrotation
		JOINT LeftKnee
		{
			OFFSET 0.000000 -0.402270 0.000000 
			CHANNELS 1 Zrotation
			JOINT LeftAnkle
			{
				OFFSET 0.000000 -0.404085 0.000000 
				CHANNELS 3 Zrotation Xrotation Yrotation
				End Site
				{
					OFFSET 0.204105 -0.089430 -0.008415 
				}
			}
		}
	}
}
MOTION
Frames: 28
Frame Time: 0.02
0.34373 0.74223 0.0942 184.96076 0 -5.46535 -35.02732 7.0238 0.44458 27.15178 1.84044 -1.04176 1.26114 -8.76464 61.80181 26.82615 100.87577 -75.22907 -5.24996 2.51099 -3.90702 -31.98874 10.54341 -130.72955 -57.78187 8.8651 54.96018 1.45422 -14.1442 -57.45651 19.16317 -8.11846 -2.06991 56.78375 2.22754 -5.03087 -60.95201 20.92813 25.01455 8.24894
0.34391 0.74232 0.09413 184.94133 0 -5.51067 -35.09792 6.94892 0.60672 27.13879 2.26712 -1.16649 0.99199 -9.31912 60.6288 27.33676 101.75318 -74.22219 -5.28558 2.58003 -4.37847 -32.34559 10.66115 -130.39662 -57.19539 8.82553 54.82799 1.50314 -14.1654 -56.41958 15.58376 -7.06155 -1.98417 56.78304 2.24361 -5.08305 -61.07206 20.9886 25.64021 8.55924
0.34415 0.74246 0.09406 184.95311 0 -5.58004 -35.19867 6.87844 0.78037 27.33677 2.80398 -1.34624 0.43498 -10.02621 59.14744 28.018 102.83337 -72.98311 -5.40486 2.44035 -4.96777 -32.6968 10.79777 -129.98975 -56.50351 8.77297 54.65357 1.55745 -14.19993 -55.10089 11.04419 -5.91094 -1.95412 56.78137 2.27029 -5.14734 -61.13891 20.98929 25.82107 8.74278
0.34435 0.74257 0.094 184.95068 0 -5.63646 -35.28339 6.80912 0.94288 27.43064 3.27521 -1.49449 0.02792 -10.64398 57.85095 28.60626 103.78481 -71.88906 -5.48074 2.40391 -5.48555 -33.03932 10.92004 -129.6319 -55.87837 8.72842 54.5052 1.60823 -14.22476 -53.95436 7.07841 -4.83237 -1.90136 56.78022 2.29184 -5.20302 -61.22761 21.01489 26.20133 8.97776
0.34458 0.7427 0.09392 184.94782 0 -5.70096 -35.379 6.72506 1.13132 27.56403 3.81215 -1.67208 -0.46433 -11.34914 56.36584 29.26413 104.88542 -70.62513 -5.57521 2.32892 -6.08094 -33.42663 11.06346 -129.21367 -55.17684 8.67478 54.32828 1.66336 -14.2644 -52.61932 2.52257 -3.60997 -1.83119 56.77824 2.31548 -5.27034 -61.32564 21.04229 26.60269 9.24086
0.34478 0.7428 0.09387 184.95345 0 -5.75456 -35.45889 6.6731 1.26829 27.66437 4.23891 -1.80142 -0.84694 -11.90806 55.19956 29.81609 105.72668 -69.65987 -5.65249 2.28612 -6.5435 -33.72115 11.16546 -128.90038 -54.60915 8.63721 54.20018 1.71092 -14.27663 -51.60889 -1.03242 -2.67122 -1.81271 56.77782 2.33705 -5.31705 -61.39038 21.05132 26.84171 9.41362
0.34486 0.74277 0.09391 184.97541 0 -5.77173 -35.48562 6.71091 1.2579 27.60973 4.32738 -1.7772 -0.84188 -12.01609 55.00038 30.02991 105.78637 -69.59217 -5.66064 2.37939 -6.59074 -33.74777 11.18794 -128.91586 -54.42469 8.6456 54.22305 1.73452 -14.20928 -51.58901 -1.53917 -2.55332 -1.92672 56.78341 2.34939 -5.30166 -61.3932 21.06386 26.85519 9.37922
0.3449 0.74269 0.09399 185.00483 0 -5.77726 -35.49582 6.78071 1.19546 27.516 4.30207 -1.70333 -0.71806 -11.9726 55.13208 30.13102 105.58048 -69.83133 -5.64919 2.51288 -6.50288 -33.68167 11.16271 -129.03731 -54.37992 8.67107 54.29551 1.75061 -14.11413 -51.90169 -1.01244 -2.72442 -2.09113 56.79033 2.35927 -5.26583 -61.36119 21.0527 26.70095 9.25649
0.34497 0.74264 0.09405 185.03058 0 -5.78847 -35.51489 6.83458 1.15845 27.44724 4.3338 -1.65649 -0.65774 -12.00466 55.10327 30.28598 105.50855 -69.91933 -5.64834 2.63158 -6.48993 -33.66969 11.13311 -129.09334 -54.27895 8.68957 54.34136 1.77133 -14.03207 -52.04594 -0.98973 -2.75639 -2.23128 56.79591 2.37079 -5.24082 -61.33472 21.03006 26.54711 9.16607
0.34503 0.74256 0.09412 185.05858 0 -5.79882 -35.52905 6.89427 1.11492 27.35544 4.34817 -1.59324 -0.56882 -12.01512 55.10085 30.43704 105.3922 -70.04597 -5.64405 2.73034 -6.42624 -33.61609 11.20983 -129.21086 -54.14492 8.70361 54.4026 1.78724 -13.94826 -52.25244 -0.85705 -2.81716 -2.37913 56.80496 2.38066 -5.20919 -61.35108 21.10542 26.69196 9.10242
0.34508 0.74253 0.09419 185.08329 0 -5.80794 -35.54944 6.94959 1.07176 27.29968 4.36864 -1.55105 -0.50564 -12.03101 55.13314 30.56575 105.29692 -70.17129 -5.64012 2.88025 -6.43192 -33.61572 11.05883 -129.2375 -54.11267 8.73199 54.44452 1.81113 -13.86169 -52.41301 -0.69385 -2.88845 -2.522 56.80658 2.39303 -5.18704 -61.26901 20.96388 26.18802 8.96605
0.34513 0.74268 0.09427 185.09657 0 -5.81587 -35.58807 6.98317 1.04835 27.35073 4.44719 -1.58404 -0.55735 -12.11218 55.11907 30.6723 105.3759 -70.19043 -5.65059 3.1861 -6.68484 -33.88959 10.24532 -128.88794 -54.34168 8.78823 54.41762 1.86054 -13.77105 -52.35786 -0.70694 -2.91453 -2.64043 56.79216 2.41471 -5.1902 -60.93914 20.3016 23.87375 8.63076
0.34517 0.74287 0.09437 185.10617 0 -5.8229 -35.63391 7.01139 1.02608 27.43855 4.533 -1.63882 -0.63516 -12.20115 55.13983 30.75754 105.47652 -70.20319 -5.65976 3.53892 -7.00759 -34.20472 9.21254 -128.4589 -54.6663 8.85929 54.37034 1.9179 -13.67913 -52.24782 -0.71855 -2.9424 -2.75147 56.7694 2.43857 -5.2046 -60.50952 19.41129 20.92694 8.22962
0.34523 0.74302 0.09446 185.1177 0 -5.83072 -35.67835 7.04349 0.99906 27.51017 4.6058 -1.68004 -0.6895 -12.27666 55.18853 30.84325 105.53042 -70.23909 -5.6639 3.85468 -7.28266 -34.42737 8.31002 -128.13587 -54.93798 8.92925 54.33484 1.97054 -13.5899 -52.16935 -0.72102 -2.97236 -2.86467 56.74722 2.46028 -5.21775 -60.11477 18.57493 18.30973 7.87227
0.34525 0.74323 0.09456 185.12861 0 -5.83681 -35.71451 7.07137 0.98742 27.57921 4.71464 -1.73465 -0.78763 -12.38745 55.07068 30.96229 105.72347 -70.2033 -5.69249 4.2364 -7.61963 -34.94173 7.27722 -127.53484 -55.25375 8.97811 54.29062 2.02762 -13.49085 -52.0745 -0.7299 -3.00021 -2.98503 56.73831 2.48697 -5.21418 -59.75998 17.93675 15.50368 7.45341
0.34533 0.74335 0.09463 185.13958 0 -5.84612 -35.7696 7.10541 0.94554 27.66184 4.75291 -1.76761 -0.80383 -12.43033 55.29506 31.0105 105.64461 -70.3073 -5.6684 4.49347 -7.84698 -34.88002 6.46357 -127.47577 -55.49957 9.07157 54.25882 2.07739 -13.41224 -51.99621 -0.73789 -3.02897 -3.08769 56.70017 2.50364 -5.24801 -59.30245 16.84539 12.94902 7.14798
0.34559 0.74318 0.09464 185.1537 0 -5.86728 -35.87705 7.16594 0.81299 27.7814 4.58366 -1.73206 -0.57418 -12.26873 56.52864 30.84954 104.72915 -70.83237 -5.5155 4.37664 -7.74619 -33.03864 6.31691 -129.07861 -55.51813 9.30777 54.26859 2.10541 -13.39127 -51.97806 -0.75175 -3.05983 -3.14592 56.57983 2.49384 -5.38559 -58.55397 14.44264 11.19301 7.17433
0.34591 0.74293 0.09462 185.16763 0 -5.89132 -36.00293 7.23131 0.65153 27.91196 4.34574 -1.67483 -0.26434 -12.04195 58.08954 30.62196 103.55479 -71.49048 -5.30805 4.13561 -7.5348 -30.64781 6.398 -131.20317 -55.46313 9.58422 54.29091 2.12574 -13.39097 -51.97674 -0.76835 -3.09011 -3.18584 56.43106 2.47358 -5.55998 -57.71164 11.61306 9.72197 7.31708
0.34619 0.74273 0.09461 185.18011 0 -5.9122 -36.11937 7.2888 0.50804 28.03221 4.14692 -1.63004 -0.00031 -11.85578 59.45219 30.43791 102.55411 -72.06431 -5.11319 3.96371 -7.38028 -28.62899 6.36848 -132.99094 -55.44961 9.82653 54.30573 2.14944 -13.38064 -51.96533 -0.78362 -3.11918 -3.23213 56.29754 2.457 -5.71539 -56.93319 9.05548 8.15454 7.40542
0.3465 0.74246 0.09462 185.19867 0 -5.94053 -36.24094 7.3696 0.34404 28.17629 3.91486 -1.57515 0.30293 -11.6239 61.02812 30.19765 101.32096 -72.73907 -4.96411 3.74146 -7.20056 -26.10395 6.35744 -135.19138 -55.41033 10.13502 54.32742 2.17406 -13.37257 -51.96216 -0.79865 -3.15465 -3.2864 56.15365 2.44503 -5.88039 -56.06157 6.16213 6.42573 7.4979
0.34676 0.74231 0.09457 185.20491 0 -5.95443 -36.35562 7.40369 0.21606 28.27269 3.73579 -1.53577 0.54326 -11.47104 62.23345 30.05826 100.50595 -73.23476 -4.71386 3.59204 -7.04571 -24.4913 6.3697 -136.66412 -55.39994 10.31662 54.3381 2.19469 -13.36521 -51.94695 -0.81483 -3.1767 -3.31984 56.02504 2.42096 -6.03437 -55.36309 3.86774 5.10825 7.61011
0.34685 0.74251 0.09436 185.17404 0 -5.92448 -36.45099 7.30199 0.19336 28.23611 3.71919 -1.54525 0.59583 -11.55912 62.36863 30.2208 100.94449 -73.20765 -4.1351 3.69071 -6.99097 -25.62856 6.34905 -135.93936 -55.53881 10.1239 54.31478 2.20745 -13.35047 -51.89027 -0.83629 -3.16052 -3.29964 55.94294 2.36619 -6.14545 -55.16595 3.35076 4.8673 7.75001
0.34687 0.74282 0.0941 185.13128 0 -5.88049 -36.53801 7.15407 0.20818 28.15083 3.75867 -1.57087 0.58179 -11.72862 62.11558 30.48658 101.80461 -72.9954 -3.46713 3.86395 -6.96425 -27.68577 6.35204 -134.47534 -55.6995 9.80456 54.28021 2.21629 -13.33638 -51.82189 -0.85844 -3.13107 -3.25932 55.87773 2.29972 -6.24451 -55.1468 3.44912 5.03191 7.90568
0.34691 0.74307 0.09386 185.09612 0 -5.84513 -36.62605 7.03116 0.20658 28.08659 3.77252 -1.58852 0.59425 -11.85522 62.01505 30.6998 102.45011 -72.8646 -2.8822 3.99152 -6.9211 -29.25744 6.37353 -133.39054 -55.81557 9.55247 54.25119 2.22596 -13.32504 -51.76179 -0.87847 -3.10853 -3.22853 55.80655 2.23836 -6.35159 -55.04647 3.25412 5.00702 8.0535
0.347 0.74336 0.09361 185.05203 0 -5.80048 -36.72637 6.89199 0.20115 28.02688 3.78341 -1.60806 0.62385 -12.00069 62.01675 30.93196 103.1897 -72.748 -2.11988 4.1632 -6.88842 -31.091 6.2826 -132.14369 -56.07437 9.2612 54.22053 2.239 -13.30229 -51.68976 -0.90598 -3.08225 -3.19512 55.72716 2.17693 -6.45017 -54.94389 3.101 5.01292 8.20863
0.34698 0.7436 0.09339 185.0233 0 -5.77166 -36.799 6.77505 0.21318 27.94663 3.81616 -1.62784 0.60286 -12.13177 61.72185 31.15327 103.82945 -72.55836 -1.70162 4.26397 -6.84366 -32.60944 6.42442 -131.04898 -56.0436 9.02046 54.19073 2.24467 -13.30226 -51.63959 -0.91832 -3.06065 -3.16304 55.66929 2.1137 -6.56184 -54.88966 3.01358 5.04822 8.35023
0.34663 0.74373 0.0933 185.04358 0 -5.79143 -36.79597 6.73688 0.26233 27.81619 3.87969 -1.6423 0.43989 -12.1584 60.58528 31.29174 104.15816 -72.18816 -2.29809 4.13703 -6.74185 -32.99442 7.23719 -130.58282 -55.19908 8.95449 54.1635 2.22666 -13.37274 -51.65257 -0.88632 -3.05487 -3.13631 55.66656 2.04243 -6.72326 -54.9247 2.94941 5.05784 8.4548
0.34617 0.7438 0.09327 185.07913 0 -5.82737 -36.76547 6.72224 0.32808 27.66756 3.96414 -1.6559 0.23043 -12.17332 59.1798 31.42089 104.36309 -71.75163 -3.23621 3.9393 -6.62835 -33.04019 8.27557 -130.29025 -54.06787 8.94307 54.13789 2.20218 -13.46443 -51.68787 -0.83942 -3.05434 -3.1123 55.68504 1.97087 -6.89607 -55.00284 2.93377 5.0831 8.54374
